<svg width="200" height="200" viewBox="0 0 200 200" fill="none" xmlns="http://www.w3.org/2000/svg">
  <!-- White circular background -->
  <circle cx="100" cy="90" r="55" fill="white" opacity="0.95"/>

  <!-- Shadow -->
  <ellipse cx="100" cy="145" rx="42" ry="6" fill="#000000" opacity="0.1"/>

  <!-- Target stand -->
  <rect x="96" y="115" width="8" height="18" rx="1" fill="#334155"/>
  <ellipse cx="100" cy="133" rx="15" ry="4" fill="#475569"/>

  <!-- Target board -->
  <circle cx="100" cy="85" r="38" fill="#DC2626"/>
  <circle cx="100" cy="85" r="30" fill="white"/>
  <circle cx="100" cy="85" r="22" fill="#EF4444"/>
  <circle cx="100" cy="85" r="14" fill="white"/>
  <circle cx="100" cy="85" r="6" fill="#DC2626"/>

  <!-- Arrow -->
  <line x1="135" y1="55" x2="108" y2="82" stroke="#1E293B" stroke-width="4" stroke-linecap="round"/>
  <path d="M108 82 L104 86 L112 86 Z" fill="#1E293B"/>
  <path d="M135 55 L132 58 L136 57 Z" fill="#EF4444"/>
  <path d="M135 55 L136 58 L134 53 Z" fill="#EF4444"/>

  <!-- Pressure waves -->
  <circle cx="100" cy="85" r="44" stroke="#FCA5A5" stroke-width="1.5" fill="none" opacity="0.6"/>
  <circle cx="100" cy="85" r="50" stroke="#FEE2E2" stroke-width="1" fill="none" opacity="0.4"/>

  <!-- Timer indicator -->
  <circle cx="55" cy="100" r="10" fill="#DC2626"/>
  <text x="55" y="104" font-family="Arial" font-size="12" font-weight="bold" fill="white" text-anchor="middle">5</text>
</svg>
