<svg width="200" height="200" viewBox="0 0 200 200" fill="none" xmlns="http://www.w3.org/2000/svg">
  <defs>
    <linearGradient id="timerGrad" x1="0%" y1="0%" x2="0%" y2="100%">
      <stop offset="0%" stop-color="#FCA5A5"/>
      <stop offset="100%" stop-color="#DC2626"/>
    </linearGradient>
  </defs>

  <!-- Shadow -->
  <ellipse cx="100" cy="170" rx="50" ry="8" fill="#000000" opacity="0.15"/>

  <!-- Timer body -->
  <circle cx="100" cy="100" r="50" fill="url(#timerGrad)"/>
  <circle cx="100" cy="100" r="43" fill="#FEF2F2"/>

  <!-- Timer segments (countdown) -->
  <path d="M100 57 A43 43 0 0 1 127 67" stroke="#DC2626" stroke-width="6" stroke-linecap="round" opacity="0.3"/>
  <path d="M127 67 A43 43 0 0 1 143 100" stroke="#EF4444" stroke-width="6" stroke-linecap="round" opacity="0.5"/>
  <path d="M143 100 A43 43 0 0 1 127 133" stroke="#F87171" stroke-width="6" stroke-linecap="round" opacity="0.7"/>

  <!-- Center -->
  <circle cx="100" cy="100" r="15" fill="#DC2626"/>
  <circle cx="100" cy="100" r="10" fill="#FEF2F2"/>

  <!-- Time display -->
  <text x="100" y="106" font-family="Arial" font-size="18" font-weight="bold" fill="#DC2626" text-anchor="middle">3:00</text>

  <!-- Pressure waves -->
  <circle cx="100" cy="100" r="60" stroke="#EF4444" stroke-width="2" fill="none" opacity="0.4"/>
  <circle cx="100" cy="100" r="68" stroke="#FCA5A5" stroke-width="2" fill="none" opacity="0.3"/>

  <!-- Lightning bolts (pressure) -->
  <path d="M155 75 L150 85 L155 85 L148 98" stroke="#FCD34D" stroke-width="3" stroke-linecap="round" stroke-linejoin="round"/>
  <path d="M45 75 L50 85 L45 85 L52 98" stroke="#FCD34D" stroke-width="3" stroke-linecap="round" stroke-linejoin="round"/>
</svg>

  <!-- Target shadow -->
  <ellipse cx="100" cy="155" rx="42" ry="8" fill="#000000" opacity="0.15"/>

  <!-- Target stand/base -->
  <rect x="95" y="135" width="10" height="20" rx="1" fill="#991B1B"/>
  <ellipse cx="100" cy="155" rx="18" ry="6" fill="#7F1D1D"/>

  <!-- Target board (3D circles) -->
  <!-- Outer ring -->
  <circle cx="100" cy="95" r="45" fill="#DC2626"/>
  <circle cx="100" cy="94" r="45" fill="#EF4444"/>

  <!-- Second ring -->
  <circle cx="100" cy="95" r="36" fill="#FCA5A5"/>
  <circle cx="100" cy="94" r="36" fill="#FEE2E2"/>

  <!-- Third ring -->
  <circle cx="100" cy="95" r="27" fill="#F87171"/>
  <circle cx="100" cy="94" r="27" fill="#FCA5A5"/>

  <!-- Fourth ring -->
  <circle cx="100" cy="95" r="18" fill="#EF4444"/>
  <circle cx="100" cy="94" r="18" fill="#FCA5A5"/>

  <!-- Center/bullseye -->
  <circle cx="100" cy="95" r="9" fill="#7F1D1D"/>
  <circle cx="100" cy="94" r="9" fill="#DC2626"/>
  <circle cx="100" cy="93" r="5" fill="#FEF2F2"/>

  <!-- Arrow (3D) -->
  <line x1="145" y1="50" x2="105" y2="90" stroke="#7F1D1D" stroke-width="5" stroke-linecap="round"/>
  <line x1="145" y1="50" x2="106" y2="89" stroke="#991B1B" stroke-width="3" stroke-linecap="round"/>

  <!-- Arrow tip -->
  <path d="M105 90 L100 95 L110 95 Z" fill="#7F1D1D"/>
  <path d="M106 90 L102 94 L109 94 Z" fill="#991B1B"/>

  <!-- Arrow feathers -->
  <path d="M145 50 L142 54 L147 52 Z" fill="#DC2626"/>
  <path d="M145 50 L147 54 L145 48 Z" fill="#DC2626"/>

  <!-- Arrow shaft detail -->
  <circle cx="125" cy="70" r="2" fill="#7F1D1D"/>
  <circle cx="135" cy="60" r="2" fill="#7F1D1D"/>

  <!-- Pressure indicators / stress waves -->
  <circle cx="100" cy="95" r="52" stroke="#F87171" stroke-width="2" fill="none" opacity="0.4"/>
  <circle cx="100" cy="95" r="58" stroke="#FCA5A5" stroke-width="2" fill="none" opacity="0.3"/>
  <circle cx="100" cy="95" r="64" stroke="#FEE2E2" stroke-width="1.5" fill="none" opacity="0.2"/>

  <!-- Side stress indicators -->
  <circle cx="40" cy="80" r="10" fill="#EF4444"/>
  <path d="M37 80 L40 77 L43 80 L40 83 Z" fill="#FEE2E2"/>

  <circle cx="160" cy="110" r="10" fill="#EF4444"/>
  <path d="M157 110 L160 107 L163 110 L160 113 Z" fill="#FEE2E2"/>

  <!-- Timer countdown -->
  <circle cx="50" cy="120" r="14" fill="#DC2626"/>
  <text x="50" y="126" font-family="Arial, sans-serif" font-size="16" font-weight="bold" fill="white" text-anchor="middle">5</text>

  <!-- Target score -->
  <circle cx="150" cy="65" r="14" fill="#10B981"/>
  <path d="M145 65 L148 68 L155 61" stroke="white" stroke-width="2.5" stroke-linecap="round" stroke-linejoin="round"/>
</svg>
