<svg width="200" height="200" viewBox="0 0 200 200" fill="none" xmlns="http://www.w3.org/2000/svg">
  <defs>
    <linearGradient id="brainGrad" x1="0%" y1="0%" x2="0%" y2="100%">
      <stop offset="0%" stop-color="#60A5FA"/>
      <stop offset="100%" stop-color="#2563EB"/>
    </linearGradient>
  </defs>

  <!-- Shadow -->
  <ellipse cx="100" cy="170" rx="50" ry="8" fill="#000000" opacity="0.15"/>

  <!-- Brain shape -->
  <ellipse cx="100" cy="100" rx="45" ry="50" fill="url(#brainGrad)"/>
  <ellipse cx="85" cy="90" rx="20" ry="25" fill="#3B82F6"/>
  <ellipse cx="115" cy="90" rx="20" ry="25" fill="#3B82F6"/>
  <ellipse cx="85" cy="115" rx="18" ry="20" fill="#60A5FA"/>
  <ellipse cx="115" cy="115" rx="18" ry="20" fill="#60A5FA"/>

  <!-- Neural connections -->
  <circle cx="75" cy="85" r="6" fill="#93C5FD"/>
  <circle cx="100" cy="75" r="6" fill="#93C5FD"/>
  <circle cx="125" cy="85" r="6" fill="#93C5FD"/>
  <circle cx="90" cy="100" r="5" fill="#DBEAFE"/>
  <circle cx="110" cy="100" r="5" fill="#DBEAFE"/>
  <circle cx="100" cy="115" r="5" fill="#DBEAFE"/>

  <!-- Connection lines -->
  <line x1="75" y1="85" x2="90" y2="100" stroke="#93C5FD" stroke-width="2" opacity="0.5"/>
  <line x1="100" y1="75" x2="100" y2="115" stroke="#93C5FD" stroke-width="2" opacity="0.5"/>
  <line x1="125" y1="85" x2="110" y2="100" stroke="#93C5FD" stroke-width="2" opacity="0.5"/>

  <!-- Light bulb insight -->
  <circle cx="100" cy="50" r="15" fill="#FCD34D"/>
  <circle cx="100" cy="48" r="10" fill="#FEF3C7"/>
  <rect x="96" y="63" width="8" height="6" rx="2" fill="#F59E0B"/>
  <path d="M92 50 L88 46 M108 50 L112 46 M92 44 L88 40 M108 44 L112 40" stroke="#FBBF24" stroke-width="2" stroke-linecap="round"/>
</svg>
