<svg width="200" height="200" viewBox="0 0 200 200" fill="none" xmlns="http://www.w3.org/2000/svg">
  <!-- White circular background -->
  <circle cx="100" cy="90" r="55" fill="white" opacity="0.95"/>

  <!-- Shadow -->
  <ellipse cx="100" cy="145" rx="45" ry="6" fill="#000000" opacity="0.1"/>

  <!-- Brain outline -->
  <path d="M60 75 C55 77 52 82 52 88 C52 90 51 93 51 95 C51 102 56 108 62 110 C64 113 67 116 72 116 C75 116 77 115 79 114 C81 115 83 116 86 116 C92 116 96 113 98 110 C104 108 109 102 109 95 C109 93 108 90 108 88 C108 82 105 77 100 75 C97 73 94 73 91 74 C89 72 87 72 85 72 C83 72 81 72 79 74 C76 73 73 73 70 75 Z"
        fill="none" stroke="#1E293B" stroke-width="3"/>

  <!-- Brain segments -->
  <ellipse cx="72" cy="88" rx="8" ry="12" fill="none" stroke="#475569" stroke-width="2"/>
  <ellipse cx="88" cy="88" rx="8" ry="12" fill="none" stroke="#475569" stroke-width="2"/>

  <!-- Neural connections -->
  <circle cx="72" cy="82" r="3" fill="#3B82F6"/>
  <circle cx="88" cy="82" r="3" fill="#3B82F6"/>
  <circle cx="80" cy="95" r="3" fill="#3B82F6"/>
  <circle cx="68" cy="92" r="2.5" fill="#60A5FA"/>
  <circle cx="92" cy="92" r="2.5" fill="#60A5FA"/>

  <line x1="72" y1="82" x2="80" y2="95" stroke="#93C5FD" stroke-width="1.5"/>
  <line x1="88" y1="82" x2="80" y2="95" stroke="#93C5FD" stroke-width="1.5"/>

  <!-- AI nodes around brain -->
  <circle cx="50" cy="80" r="6" fill="#3B82F6"/>
  <circle cx="50" cy="80" r="3" fill="white"/>
  <line x1="56" y1="80" x2="60" y2="82" stroke="#93C5FD" stroke-width="1.5" stroke-dasharray="2 2"/>

  <circle cx="110" cy="75" r="6" fill="#3B82F6"/>
  <circle cx="110" cy="75" r="3" fill="white"/>
  <line x1="104" y1="77" x2="100" y2="80" stroke="#93C5FD" stroke-width="1.5" stroke-dasharray="2 2"/>

  <circle cx="48" cy="105" r="5" fill="#60A5FA"/>
  <circle cx="48" cy="105" r="2" fill="white"/>

  <circle cx="112" cy="102" r="5" fill="#60A5FA"/>
  <circle cx="112" cy="102" r="2" fill="white"/>

  <!-- Sparkle effect -->
  <path d="M80 60 L81 63 L84 63 L81.5 65 L82.5 68 L80 66 L77.5 68 L78.5 65 L76 63 L79 63 Z" fill="#FCD34D"/>
</svg>
