<svg width="200" height="200" viewBox="0 0 200 200" fill="none" xmlns="http://www.w3.org/2000/svg">
  <!-- White circular background -->
  <circle cx="100" cy="90" r="55" fill="white" opacity="0.95"/>

  <!-- Shadow -->
  <ellipse cx="100" cy="145" rx="50" ry="6" fill="#000000" opacity="0.1"/>

  <!-- Book stack (3 books) -->
  <rect x="68" y="105" width="64" height="12" rx="2" fill="#334155"/>
  <rect x="70" y="107" width="60" height="8" fill="#64748B"/>

  <rect x="66" y="88" width="68" height="12" rx="2" fill="#475569"/>
  <rect x="68" y="90" width="64" height="8" fill="#94A3B8"/>
  <line x1="72" y1="94" x2="82" y2="94" stroke="white" stroke-width="1"/>

  <rect x="64" y="70" width="72" height="13" rx="2" fill="#1E293B"/>
  <rect x="66" y="72" width="68" height="9" fill="#CBD5E1"/>
  <line x1="70" y1="76.5" x2="82" y2="76.5" stroke="#475569" stroke-width="1"/>
  <line x1="70" y1="79" x2="78" y2="79" stroke="#64748B" stroke-width="0.5"/>

  <!-- Magnifying glass -->
  <circle cx="118" cy="62" r="15" fill="white" stroke="#0F766E" stroke-width="2.5"/>
  <circle cx="118" cy="62" r="10" fill="#F0FDFA"/>
  <line x1="127" y1="71" x2="138" y2="82" stroke="#0F766E" stroke-width="4" stroke-linecap="round"/>

  <!-- A+ grade inside glass -->
  <text x="118" y="66" font-family="Arial" font-size="11" font-weight="bold" fill="#0F766E" text-anchor="middle">A+</text>

  <!-- Bookmark ribbons -->
  <rect x="88" y="58" width="5" height="16" fill="#DC2626"/>
  <path d="M88 74 L90.5 71 L93 74 Z" fill="#B91C1C"/>

  <rect x="100" y="62" width="5" height="12" fill="#10B981"/>
  <path d="M100 74 L102.5 71.5 L105 74 Z" fill="#059669"/>

  <!-- Star rating -->
  <path d="M72 55 L73 58 L76 58 L73.5 60 L74.5 63 L72 61 L69.5 63 L70.5 60 L68 58 L71 58 Z" fill="#FCD34D"/>
  <path d="M82 55 L83 58 L86 58 L83.5 60 L84.5 63 L82 61 L79.5 63 L80.5 60 L78 58 L81 58 Z" fill="#FCD34D"/>
  <path d="M92 55 L93 58 L96 58 L93.5 60 L94.5 63 L92 61 L89.5 63 L90.5 60 L88 58 L91 58 Z" fill="#FBBF24"/>
</svg>
