<svg width="160" height="160" viewBox="0 0 160 160" fill="none" xmlns="http://www.w3.org/2000/svg">
  <!-- Shadow -->
  <ellipse cx="80" cy="135" rx="50" ry="8" fill="#000000" opacity="0.1"/>

  <!-- Book/Guide pages (layered) -->
  <rect x="50" y="42" width="60" height="75" rx="3" fill="#F3F4F6" transform="rotate(-2 80 80)"/>
  <rect x="48" y="40" width="60" height="75" rx="3" fill="#E5E7EB"/>

  <!-- Main guide/book -->
  <rect x="45" y="35" width="65" height="80" rx="4" fill="#FFFFFF" stroke="#F59E0B" stroke-width="2.5"/>

  <!-- Bookmark ribbon -->
  <rect x="92" y="35" width="8" height="35" fill="#F59E0B" opacity="0.8"/>
  <path d="M96 70 L92 65 L100 65 Z" fill="#F59E0B" opacity="0.8"/>

  <!-- Title bar -->
  <rect x="50" y="42" width="55" height="8" rx="2" fill="#FEF3C7"/>

  <!-- Content lines -->
  <rect x="52" y="58" width="48" height="2.5" rx="1.25" fill="#D1D5DB"/>
  <rect x="52" y="65" width="45" height="2.5" rx="1.25" fill="#D1D5DB"/>
  <rect x="52" y="72" width="50" height="2.5" rx="1.25" fill="#D1D5DB"/>
  <rect x="52" y="79" width="42" height="2.5" rx="1.25" fill="#D1D5DB"/>

  <!-- Bullet points -->
  <circle cx="54" cy="90" r="2" fill="#F59E0B"/>
  <rect x="60" y="88.5" width="38" height="2.5" rx="1.25" fill="#D1D5DB"/>

  <circle cx="54" cy="97" r="2" fill="#F59E0B"/>
  <rect x="60" y="95.5" width="35" height="2.5" rx="1.25" fill="#D1D5DB"/>

  <circle cx="54" cy="104" r="2" fill="#F59E0B"/>
  <rect x="60" y="102.5" width="40" height="2.5" rx="1.25" fill="#D1D5DB"/>

  <!-- Star icon (top right) -->
  <circle cx="120" cy="50" r="10" fill="#FBBF24" opacity="0.2"/>
  <path d="M120 45 L121.5 48.5 L125 49 L122.5 51.5 L123 55 L120 53 L117 55 L117.5 51.5 L115 49 L118.5 48.5 Z" fill="#F59E0B"/>

  <!-- Light bulb icon (bottom left) -->
  <circle cx="30" cy="100" r="8" fill="#FBBF24" opacity="0.15"/>
  <circle cx="30" cy="98" r="4" fill="#F59E0B" opacity="0.7"/>
  <rect x="29" y="101" width="2" height="3" rx="1" fill="#F59E0B" opacity="0.7"/>
</svg>
