<svg width="200" height="200" viewBox="0 0 200 200" fill="none" xmlns="http://www.w3.org/2000/svg">
  <!-- White circular background for contrast -->
  <circle cx="100" cy="90" r="55" fill="white" opacity="0.95"/>

  <!-- Shadow -->
  <ellipse cx="100" cy="145" rx="45" ry="6" fill="#000000" opacity="0.1"/>

  <!-- Book stack -->
  <rect x="70" y="100" width="60" height="12" rx="2" fill="#1E293B"/>
  <rect x="73" y="103" width="54" height="6" fill="#F1F5F9"/>

  <rect x="68" y="85" width="64" height="12" rx="2" fill="#334155"/>
  <rect x="71" y="88" width="58" height="6" fill="#F8FAFC"/>
  <line x1="75" y1="91" x2="90" y2="91" stroke="#94A3B8" stroke-width="0.5"/>

  <!-- Open book on top -->
  <path d="M65 65 L65 87 Q65 88 67 88 L98 88 Q100 88 100 87 L100 67 Q100 65 98 65 Z" fill="#475569"/>
  <rect x="68" y="68" width="30" height="17" fill="white"/>
  <line x1="72" y1="72" x2="94" y2="72" stroke="#CBD5E1" stroke-width="1"/>
  <line x1="72" y1="76" x2="92" y2="76" stroke="#E2E8F0" stroke-width="1"/>
  <line x1="72" y1="80" x2="94" y2="80" stroke="#E2E8F0" stroke-width="1"/>

  <path d="M135 65 L135 87 Q135 88 133 88 L102 88 Q100 88 100 87 L100 67 Q100 65 102 65 Z" fill="#475569"/>
  <rect x="102" y="68" width="30" height="17" fill="white"/>
  <line x1="106" y1="72" x2="128" y2="72" stroke="#CBD5E1" stroke-width="1"/>
  <line x1="106" y1="76" x2="126" y2="76" stroke="#E2E8F0" stroke-width="1"/>
  <line x1="106" y1="80" x2="128" y2="80" stroke="#E2E8F0" stroke-width="1"/>

  <!-- Pencil -->
  <g transform="rotate(25 140 70)">
    <rect x="135" y="45" width="10" height="35" rx="1.5" fill="#FCD34D"/>
    <rect x="135" y="45" width="10" height="6" fill="#F97316"/>
    <circle cx="140" cy="48" r="2" fill="#92400E"/>
    <path d="M140 80 L137 84 L143 84 Z" fill="#78350F"/>
    <rect x="138" y="52" width="2" height="22" fill="white" opacity="0.4"/>
  </g>

  <!-- Star badge -->
  <circle cx="140" cy="105" r="10" fill="#FCD34D"/>
  <path d="M140 100 L141 103 L144 103 L141.5 105 L142.5 108 L140 106 L137.5 108 L138.5 105 L136 103 L139 103 Z" fill="white"/>
</svg>
