<svg width="200" height="200" viewBox="0 0 200 200" fill="none" xmlns="http://www.w3.org/2000/svg">
  <circle cx="100" cy="100" r="65" fill="#FEF3C7" opacity="0.4"/>
  <ellipse cx="100" cy="155" rx="50" ry="8" fill="#000000" opacity="0.15"/>
  <!-- Receipt -->
  <g transform="translate(100, 115)">
    <rect x="-18" y="-24" width="36" height="48" rx="2" fill="white" stroke="#94A3B8" stroke-width="2"/>
    <path d="M -18 -24 L -16 -26 L -14 -24 L -12 -26 L -10 -24 L -8 -26 L -6 -24 L -4 -26 L -2 -24 L 0 -26 L 2 -24 L 4 -26 L 6 -24 L 8 -26 L 10 -24 L 12 -26 L 14 -24 L 16 -26 L 18 -24" stroke="#94A3B8" stroke-width="1" fill="none"/>
    <line x1="-12" y1="-16" x2="12" y2="-16" stroke="#64748B" stroke-width="1.5"/>
    <line x1="-12" y1="-8" x2="12" y2="-8" stroke="#64748B" stroke-width="1"/>
    <line x1="-12" y1="0" x2="12" y2="0" stroke="#64748B" stroke-width="1"/>
    <line x1="-12" y1="8" x2="8" y2="8" stroke="#64748B" stroke-width="1"/>
  </g>
  <circle cx="100" cy="70" r="18" fill="#0EA5E9"/>
  <text x="100" y="68" font-family="Arial" font-size="7" font-weight="bold" fill="white" text-anchor="middle">SBI</text>
  <text x="100" y="77" font-family="Arial" font-size="6" fill="#E0F2FE" text-anchor="middle">Clerk</text>
  <circle cx="100" cy="70" r="15" fill="none" stroke="#7DD3FC" stroke-width="2"/>
</svg>
